<svg version="1.2" xmlns="http://www.w3.org/2000/svg" viewBox="0 0 100 100" width="100" height="100">
	<title>icon-user-default-svg</title>
	<style>
		.s0 { fill: #453953 } 
	</style>
	<path id="path8" class="s0" d="m99.9 83.1q0 7.8-5.1 12.3-5.2 4.5-13.8 4.5h-61.8q-8.6 0-13.8-4.5-5.2-4.5-5.2-12.3 0-3.4 0.3-6.7 0.2-3.3 1-7.1 0.7-3.8 1.9-7 1.1-3.2 3-6.3 1.9-3.1 4.4-5.3 2.5-2.1 6.1-3.4 3.5-1.3 7.8-1.3 0.7 0 3 1.4 2.4 1.4 5.3 3.1 2.9 1.7 7.6 3.1 4.7 1.4 9.5 1.4 4.7 0 9.4-1.4 4.8-1.4 7.7-3.1 2.9-1.7 5.3-3.1 2.3-1.4 2.9-1.4 4.4 0 7.9 1.3 3.6 1.3 6.1 3.4 2.5 2.2 4.4 5.3 1.9 3.1 3 6.3 1.2 3.2 1.9 7 0.7 3.8 1 7.1 0.2 3.3 0.2 6.7zm-22.6-57.8q0 10.3-8 17.5-8 7.3-19.2 7.3-11.3 0-19.2-7.3-8-7.2-8-17.5 0-10.3 8-17.6 7.9-7.3 19.2-7.3 11.2 0 19.2 7.3 8 7.3 8 17.6z"/>
</svg>